<svg width="216" height="95" viewBox="0 0 216 95" fill="none" xmlns="http://www.w3.org/2000/svg">
<path d="M63.8644 64.7138C60.9142 64.7138 58.2811 63.9603 55.9653 62.4535C53.6653 60.9308 51.8571 58.7656 50.5406 55.9581C49.2399 53.1347 48.5896 49.7482 48.5896 45.7987C48.5896 41.8491 49.2478 38.4705 50.5644 35.663C51.8968 32.8555 53.7209 30.7062 56.0367 29.2152C58.3525 27.7242 60.9776 26.9787 63.912 26.9787C66.1802 26.9787 68.0044 27.3594 69.3843 28.1207C70.7802 28.8662 71.8588 29.7386 72.6201 30.7379C73.3973 31.7372 74.0001 32.6175 74.4284 33.3789H74.8566V15.2727H81.9706V64H75.0232V58.3136H74.4284C74.0001 59.0908 73.3815 59.979 72.5725 60.9783C71.7794 61.9776 70.685 62.85 69.2892 63.5955C67.8933 64.341 66.0851 64.7138 63.8644 64.7138ZM65.4347 58.6467C67.4809 58.6467 69.2098 58.1074 70.6215 57.0288C72.0491 55.9343 73.1277 54.4195 73.8573 52.4844C74.6028 50.5492 74.9756 48.2969 74.9756 45.7273C74.9756 43.1894 74.6108 40.9687 73.8811 39.0653C73.1515 37.1619 72.0808 35.6789 70.6691 34.6161C69.2574 33.5534 67.5126 33.022 65.4347 33.022C63.2934 33.022 61.509 33.5772 60.0814 34.6875C58.6539 35.7978 57.5753 37.3126 56.8456 39.2319C56.1318 41.1512 55.7749 43.3163 55.7749 45.7273C55.7749 48.17 56.1398 50.3668 56.8694 52.3178C57.599 54.2688 58.6776 55.8153 60.1052 56.9574C61.5486 58.0836 63.3251 58.6467 65.4347 58.6467ZM92.1241 64V27.4545H98.9526V33.4027H99.4047C100.166 31.3883 101.411 29.8179 103.14 28.6918C104.869 27.5497 106.939 26.9787 109.35 26.9787C111.793 26.9787 113.839 27.5497 115.488 28.6918C117.154 29.8338 118.383 31.4041 119.176 33.4027H119.557C120.429 31.4517 121.817 29.8973 123.721 28.7393C125.624 27.5656 127.892 26.9787 130.525 26.9787C133.84 26.9787 136.545 28.0176 138.639 30.0955C140.748 32.1734 141.803 35.3061 141.803 39.4936V64H134.689V40.1598C134.689 37.6854 134.015 35.893 132.667 34.7827C131.318 33.6723 129.709 33.1172 127.837 33.1172C125.521 33.1172 123.721 33.831 122.436 35.2585C121.151 36.6702 120.509 38.4864 120.509 40.707V64H113.419V39.7077C113.419 37.725 112.8 36.1309 111.563 34.9254C110.325 33.7199 108.715 33.1172 106.733 33.1172C105.385 33.1172 104.139 33.4741 102.997 34.1879C101.871 34.8858 100.959 35.8613 100.261 37.1143C99.5791 38.3674 99.2381 39.8188 99.2381 41.4684V64H92.1241ZM158.452 42.3011V64H151.338V27.4545H158.166V33.4027H158.619C159.459 31.4676 160.776 29.9131 162.568 28.7393C164.376 27.5656 166.652 26.9787 169.397 26.9787C171.887 26.9787 174.068 27.5021 175.94 28.549C177.811 29.58 179.263 31.1186 180.294 33.1648C181.325 35.2109 181.84 37.7409 181.84 40.7546V64H174.726V41.6112C174.726 38.9622 174.036 36.8923 172.656 35.4013C171.276 33.8944 169.381 33.141 166.97 33.141C165.32 33.141 163.853 33.4979 162.568 34.2116C161.299 34.9254 160.292 35.9723 159.546 37.3523C158.817 38.7164 158.452 40.366 158.452 42.3011Z" fill="black"/>
<path fill-rule="evenodd" clip-rule="evenodd" d="M16 3.5C16 6.917 15.905 7 12 7H8V11V15H4H0V55V95H100H200V91V87H204C207.905 87 208 86.917 208 83.5C208 80.083 208.095 80 212 80H216V40V0H116H16V3.5ZM215 40V79H116H17V40V1H116H215V40ZM16 44V80H111.5H207V83V86H108H9V47V8H12.5H16V44ZM8 51.5V87H103.5H199V90.5V94H100H1V55V16H4.5H8V51.5Z" fill="black"/>
</svg>
