<svg width="80" height="80" viewBox="0 0 80 80" fill="none" xmlns="http://www.w3.org/2000/svg">
<g clip-path="url(#clip0_14_85)">
<path fill-rule="evenodd" clip-rule="evenodd" d="M27.1233 50.49C24.7567 47.6334 23.3033 44 23.3033 40C23.3033 30.8 30.7733 23.3334 39.97 23.3334C43.9733 23.3334 47.6067 24.7834 50.4633 27.15L56.7867 20.8267C51.9833 18.3667 46.38 16.6667 40.0033 16.6667C19.62 16.6667 6.58667 34.5167 3.86333 38.6134C5.62667 41.3934 11.7933 50.37 20.9067 56.7067L27.1233 50.49V50.49ZM48.1033 29.51C45.86 27.7434 43.0533 26.6667 39.97 26.6667C32.6133 26.6667 26.6367 32.64 26.6367 40C26.6367 43.0767 27.7167 45.8834 29.4833 48.13L48.1033 29.51ZM73.3033 9.02335L8.99667 73.3334L6.63667 70.9767L18.4633 59.15C10.8033 53.7767 4.35 46.2 -0.0299988 38.5867C8.03 24.91 23.1133 13.3334 40.0033 13.3334C46.8867 13.3334 53.4067 15.22 59.2767 18.3367L70.9467 6.66669L73.3033 9.02335V9.02335ZM65.0867 21.9534L62.64 24.4C70.0933 29.7967 74.7333 36.4134 76.1767 38.6467C73.7133 42.99 61.0233 63.3334 40.0033 63.3334C35.2533 63.3334 30.84 62.1067 26.8333 60.2067L24.34 62.7C29.2567 65.1734 34.53 66.6667 40.0033 66.6667C57.5833 66.6667 72.53 53.3134 80 38.5467C76.3767 32.2434 71.2333 26.4234 65.0867 21.9534V21.9534ZM53.3033 40C53.3033 38.1534 52.9267 36.3934 52.2467 34.7934L54.6933 32.3467C55.8967 34.6467 56.6367 37.2267 56.6367 40C56.6367 49.1967 49.17 56.6667 39.97 56.6667C37.1967 56.6667 34.6233 55.9234 32.32 54.7234L34.7667 52.2734C36.3667 52.9534 38.1233 53.3334 39.97 53.3334C47.33 53.3334 53.3033 47.36 53.3033 40V40Z" fill="black"/>
</g>
<defs>
<clipPath id="clip0_14_85">
<rect width="80" height="80" fill="white"/>
</clipPath>
</defs>
</svg>
