<svg width="60" height="60" viewBox="0 0 60 60" fill="none" xmlns="http://www.w3.org/2000/svg">
<path d="M13.8223 0.0996666H46.1776C53.7799 0.0996666 59.9003 6.21997 59.9003 13.8223V46.1776C59.9003 53.7799 53.78 59.9003 46.1776 59.9003H13.8223C6.21997 59.9003 0.0996704 53.78 0.0996704 46.1777V13.8223C0.0996704 6.21997 6.21997 0.0996666 13.8223 0.0996666V0.0996666Z" fill="url(#paint0_linear_8_14)"/>
<path d="M29.9464 3.71372C15.7578 3.71372 4.25623 15.2153 4.25623 29.4039C4.25623 43.5926 15.7578 55.0942 29.9464 55.0942C44.135 55.0942 55.6366 43.5927 55.6366 29.4039C55.6366 15.2153 44.135 3.71372 29.9464 3.71372ZM29.9464 6.54917C42.5673 6.54917 52.8012 16.7832 52.8012 29.404C52.8012 42.0249 42.5673 52.2589 29.9464 52.2589C17.3255 52.2589 7.113 42.0249 7.113 29.404C7.113 16.7832 17.3255 6.54917 29.9464 6.54917V6.54917Z" fill="black"/>
<path d="M40.6518 12.2676L22.8366 17.085H22.8159V24.3314H22.8366V37.2882C22.0572 36.8192 21.1016 36.5407 20.0751 36.5407C17.4306 36.5407 15.2997 38.3773 15.2997 40.6311C15.2997 42.8855 17.4312 44.7009 20.0751 44.7009C22.719 44.7009 24.9661 42.8837 24.8718 40.6312L24.8232 39.475L24.7056 23.8118L38.7834 20.0118V34.3181C37.9614 33.7514 36.9122 33.4046 35.7727 33.4046C33.1283 33.4046 30.9967 35.2411 30.9967 37.4949C30.9967 39.7494 33.1283 41.5647 35.7727 41.5647C38.4172 41.5647 40.6398 39.7494 40.6398 37.4949C40.6398 37.4737 40.6405 37.4538 40.6398 37.4324L40.6525 19.5129V12.2676H40.6518V12.2676Z" fill="black"/>
<defs>
<linearGradient id="paint0_linear_8_14" x1="29.9707" y1="59.6598" x2="30.0289" y2="0.821161" gradientUnits="userSpaceOnUse">
<stop stop-color="white"/>
<stop offset="1" stop-color="white"/>
</linearGradient>
</defs>
</svg>
