<svg width="60" height="60" viewBox="0 0 60 60" fill="none" xmlns="http://www.w3.org/2000/svg">
<path d="M30 0C13.4309 0 0 13.4309 0 30C0 46.5691 13.4309 60 30 60C46.5691 60 60 46.5691 60 30C60 13.433 46.5691 0.00204708 30 0ZM43.7584 43.2671C43.2201 44.1515 42.0676 44.4278 41.1873 43.8895C34.1433 39.5844 25.2753 38.6121 14.8332 40.9969C13.826 41.2282 12.8229 40.5977 12.5937 39.5906C12.3623 38.5834 12.9908 37.5803 14 37.3511C25.4268 34.741 35.2303 35.8649 43.1382 40.696C44.0184 41.2385 44.2989 42.3869 43.7584 43.2671V43.2671ZM47.4289 35.1013C46.7513 36.2027 45.3101 36.5466 44.2108 35.871C36.1494 30.915 23.8547 29.48 14.3173 32.3746C13.0809 32.7492 11.7748 32.0512 11.3982 30.8168C11.0256 29.5803 11.7236 28.2764 12.958 27.8997C23.8526 24.5937 37.3982 26.1945 46.6571 31.8854C47.7584 32.5629 48.1064 34.002 47.4289 35.1013ZM47.7441 26.5937C38.0737 20.8516 22.1228 20.3234 12.8905 23.1238C11.4084 23.5742 9.84033 22.737 9.39202 21.2549C8.94371 19.7728 9.77892 18.2047 11.2631 17.7544C21.8608 14.5384 39.4759 15.1587 50.608 21.7666C51.9406 22.5589 52.3787 24.2805 51.5885 25.6111C50.8004 26.9458 49.0747 27.3859 47.7441 26.5937Z" fill="white"/>
</svg>
