<svg width="60" height="60" viewBox="0 0 60 60" fill="none" xmlns="http://www.w3.org/2000/svg">
<path d="M47.5 0H12.5C5.5975 0 0 5.5975 0 12.5V47.5C0 54.4025 5.5975 60 12.5 60H47.5C54.405 60 60 54.4025 60 47.5V12.5C60 5.5975 54.405 0 47.5 0ZM48.125 42.49H42.79C39.7775 42.49 39.2675 40.7725 36.7875 38.2925C34.545 36.05 33.3 37.77 33.3525 40.9625C33.3675 41.81 32.95 42.49 31.9375 42.49C28.7775 42.49 24.2375 42.935 19.6425 37.975C14.935 32.8925 10 22.6975 10 21.6925C10 21.1 10.49 20.8325 11.31 20.8325H16.735C18.17 20.8325 18.2925 21.5425 18.6925 22.455C20.36 26.2575 24.355 33.89 25.4175 29.63C26.0275 27.185 26.2775 21.5175 23.66 21.03C22.175 20.755 24.79 19.165 28.58 19.165C29.5225 19.165 30.545 19.2675 31.5925 19.5075C33.515 19.955 33.52 20.815 33.495 22.0725C33.3975 26.83 32.8225 30.0325 34.0775 30.84C35.275 31.615 38.425 26.5475 40.085 22.6375C40.5425 21.555 40.6325 20.8325 41.92 20.8325H48.555C52.03 20.8325 48.1 25.825 45.0975 29.725C42.6775 32.8625 42.8075 32.925 45.62 35.535C47.6275 37.395 49.995 39.935 49.995 41.375C50 42.055 49.47 42.49 48.125 42.49V42.49Z" fill="white"/>
</svg>
