<svg width="60" height="60" viewBox="0 0 60 60" fill="none" xmlns="http://www.w3.org/2000/svg">
<path d="M12.3576 6.13287C16.7718 2.86203 21.9889 0.884776 27.4264 0.393463V9.39112C23.9115 9.8468 20.5547 11.1925 17.6833 13.3202C14.088 15.9843 11.4439 19.7334 10.1413 24.0145C8.83865 28.2956 8.94635 32.882 10.4485 37.0971C11.9506 41.3124 14.7677 44.9335 18.4842 47.4258C22.2007 49.9182 26.6198 51.1502 31.0897 50.9404C35.5597 50.7302 39.8437 49.0891 43.3102 46.2593C46.7764 43.4291 49.2415 39.56 50.3418 35.2226C51.1095 32.1971 51.1844 29.0554 50.5833 26.0267L58.1389 19.9524L58.1338 19.9034C60.1735 25.5139 60.4851 31.6176 59.0128 37.4222C57.4408 43.6185 53.9193 49.1458 48.9673 53.1887C44.0153 57.2313 37.8953 59.5756 31.5096 59.8756C25.124 60.1756 18.811 58.4156 13.5017 54.8549C8.19246 51.2945 4.16806 46.1218 2.02215 40.1C-0.123778 34.0783 -0.277631 27.5263 1.58328 21.4105C3.44419 15.2947 7.22134 9.9388 12.3576 6.13287Z" fill="white"/>
<path d="M52.4418 10.3324L52.4735 10.4117L47.4244 18.431C45.588 15.71 43.1277 13.4452 40.248 11.8421V30.0916C40.248 35.6907 35.7091 40.2298 30.1099 40.2298C24.5108 40.2298 19.9718 35.6907 19.9718 30.0916C19.9718 24.4925 24.5108 19.9534 30.1099 19.9534C32.2083 19.9534 34.1579 20.591 35.7754 21.6829V0.811066C42.3575 2.07708 48.1695 5.50737 52.4418 10.3324Z" fill="white"/>
</svg>
